<?xml version="1.0" standalone="no"?>
<!DOCTYPE svg PUBLIC "-//W3C//DTD SVG 1.1//EN" "http://www.w3.org/Graphics/SVG/1.1/DTD/svg11.dtd" >
<svg xmlns="http://www.w3.org/2000/svg">
<metadata>Generated by IcoMoon</metadata>
<defs>
<font id="icomoon" horiz-adv-x="1024">
<font-face units-per-em="1024" ascent="896" descent="-128" />
<missing-glyph horiz-adv-x="1024" />
<glyph unicode="&#x20;" d="" />
<glyph unicode="&#x78;" glyph-name="x" horiz-adv-x="1001" d="M281 627q-27-1-53-1h-83q-18 0-36.5-6t-32.5-18.5-23-32-9-45.5v-76h912v41q0 16-0.5 30t-0.5 18q0 13-5 29t-17 29.5-31.5 22.5-49.5 9h-133v-97h-438v97zM955 394v-52q0-23 0.5-52t0.5-58-10.5-47.5-26-30-33-16-31.5-4.5q-14-1-29.5-0.5t-29.5 0.5h-32l-45 128h-439l-44-128h-63q-20 0-45 1-25 0-41 9.5t-25.5 23-13.5 29.5-4 30v167h911zM163 331q-12 0-21-8.5t-9-21.5 9-21.5 21-8.5q13 0 22 8.5t9 21.5-9 21.5-22 8.5zM316 207q-8-26-14-48-5-19-10.5-37t-7.5-25-3-15 1-14.5 9.5-10.5 21.5-4h365q23 0 34 12t2 38q-5 13-9.5 30.5t-9.5 34.5q-5 19-11 39h-368zM336 582v228q0 11 2.5 23t10 21.5 20.5 15.5 34 6h188q31 0 51.5-14.5t20.5-52.5v-227h-327z" />
<glyph unicode="&#xe600;" glyph-name="uniE600" horiz-adv-x="1025" d="M512.5 895q106.5 0 199.5-40t162.5-109.5 109.5-162.5 40-199.5-40-199.5-109.5-162.5-162.5-109.5-199.5-40-199.5 40-162.5 109.5-109.5 162.5-40 199.5 40 199.5 109.5 162.5 162.5 109.5 199.5 40zM854 424q3 4 6 10t3 14q0 11-7 20-5 7-10 9.5t-10 3.5q-5 2-9 2h-205q-5 0-9 4-6 4-6 8l-58 205q-2 5-3.5 9.5t-4.5 9.5q-4 4-10.5 9t-17.5 6q-12-1-19-6t-10-9q-3-5-4.5-9.5t-3.5-9.5l-58-205q0-4-6-8-4-4-9-4h-197q-5 0-11-0.5t-12-3.5q-9-3-14-11-9-9-7-20 0-8 2.5-14t5.5-10q5-6 15-11l159-104q2-2 4.5-7t2.5-11v-3l-63-201q-1-5-2-9t-1-10q0-4 1-9.5t7-12.5q4-6 11.5-9.5t13.5-3.5q13 1 19.5 4.5t12.5 8.5l155 132q1 3 9 3 5 0 7-2l163-134q8-4 14.5-7.5t17.5-4.5h1q6 0 13.5 3.5t11.5 9.5q5 7 6.5 12t1.5 9q0 6-1 10.5t-3 9.5l-70 203q-1 1-1 3 0 5 2.5 10t4.5 6l158 104q9 4 14 11z" />
<glyph unicode="&#xe601;" glyph-name="uniE601" horiz-adv-x="1071" d="M481 623q0-8 3-15.5t8-12.5 12.5-8 15.5-3h202q16 0 27.5 11.5t11.5 27.5v128q0 6-1.5 11t-4 9.5-6 8-8 6-9.5 4-10 1.5h-202q-16 0-27.5-11.5t-11.5-28.5v-128zM178 295h524v-146h-524v146zM130 623q0-11 5.5-20t14.5-14 20-5h201q11 0 20 5t14.5 14 5.5 20v128q0 17-12 28.5t-28 11.5h-201q-8 0-15.5-3t-13-8.5-8.5-12.5-3-16v-128zM57-8q0-10 5.5-19.5t14.5-14.5 20-5h694q17 0 28.5 11.5t11.5 27.5v168l210-142v422l-210-142v173q0 11-5 20t-14.5 14-20.5 5h-694q-17 0-28.5-11t-11.5-28v-479z" />
<glyph unicode="&#xe602;" glyph-name="uniE602" d="M870 606h-258l138 137q9-2 17-2 19 0 35 9t25 25 9 35q0 14-5.5 26.5t-14.5 22-22 15-27 5.5q-19 0-34.5-9.5t-25-25-9.5-34.5q0-8 3-18l-187-186h-5l-187 187q2 10 2 18 0 28-20 48t-48 20-48-20-20-48.5 20-48.5 48-20q8 0 17 3l140-139h-259q-28 0-51.5-14t-37.5-37.5-14-51.5v-512q0-42 30-72t73-30h716q43 0 73 30t30 72v512q0 43-30 73t-73 30zM734 60q0-36-25-61t-60-25h-444q-23 0-43 11.5t-31.5 31.5-11.5 43v358q0 23 11.5 43t31.5 31 43 11h444q35 0 60-25t25-60v-358zM853-9q-21 0-36 15t-15 37q0 6 1.5 11.5t4 10.5 6 9.5 8 8 9.5 6 10.5 4 11.5 1.5q22 0 37-15t15-36.5-15-36.5-37-15zM853 162q-21 0-36 15t-15 36q0 11 4 20.5t11 16 16.5 11 20 4.5 20-4.5 16-11 11-16 4.5-20.5q0-21-15-36t-37-15z" />
<glyph unicode="&#xe603;" glyph-name="uniE603" d="M248 479h87l-39-218h99l38 218h88l13 78h-272zM672 361l-17 196h-99l50-296h98l156 296h-98zM671 34h-316q-11 0-19.5-8t-8.5-20q0-7 4-13.5t10.5-10.5 13.5-4h316q5 0 10.5 2.5t9 6 6 8.5 2.5 11q0 12-8.5 20t-19.5 8zM978 755h-935q-15 0-23.5-9t-8.5-24v-596q0-10 6-18t15-11.5 20-3.5h926q15 0 24 8.5t9 24.5v596q0 15-9 24t-24 9zM961 158q0-16-16-16h-869q-7 0-11.5 4.5t-4.5 11.5v531q0 17 16 17h869q8 0 12-4.5t4-12.5v-531z" />
<glyph unicode="&#xe604;" glyph-name="uniE604" d="M638 793q57-4 106.5-17t83.5-30.5 61.5-37.5 44-39 27.5-35 15-26l4-9-10 116q-35 49-88.5 77.5t-114 35-113.5 3-109-14.5q-32 4-59 4-90 0-172-35t-141-94-94-141-35-172 35-172 94-141 141-94 172-35 171.5 35 141 94 94.5 141 35 172q0 56-14 110t-39.5 100.5-61.5 86-80.5 69.5-94.5 49zM327 98q-50 0-85.5 35.5t-35.5 85.5 35.5 85.5 85.5 35.5 85.5-35.5 35.5-85.5q0-63-51-99-32-22-70-22zM327 416q-25 0-47.5 9.5t-38.5 25.5-25.5 38.5-9.5 47.5q0 50 35.5 85.5t85.5 35.5 85.5-35.5 35.5-85.5-35.5-85.5-85.5-35.5zM645 98q-51 0-86.5 35.5t-35.5 85.5 35.5 85.5 86 35.5 86-35.5 35.5-85.5q0-63-52-99-32-22-69-22zM645 416q-33 0-61 16t-44.5 44-16.5 61q0 50 35.5 85.5t86.5 35.5q19 0 37.5-6t33.5-17.5 26-26.5 17.5-33.5 6.5-37.5q0-50-35.5-85.5t-85.5-35.5z" />
<glyph unicode="&#xe605;" glyph-name="uniE605" d="M17 570h132v132h-132v-132zM281 702v-132h726v132h-726zM17 306h132v132h-132v-132zM281 306h726v132h-726v-132zM17 43h132v132h-132v-132zM281 43h726v132h-726v-132z" />
<glyph unicode="&#xe606;" glyph-name="uniE606" d="M823 732v-15q0-9-13-9h-27q-13 0-13 9v15q-6 0-12-2t-11-4.5-8.5-6-5.5-7.5-2-9v-44q0-26-24-26h-386q-29 0-29 30v40q0 11-11 19.5t-27 9.5v-15q0-9-13-9h-27q-13 0-13 9v15q-8-1-15.5-3.5t-12.5-6-8-8.5-3-11v-641q0-11 11-19t28-10v17q0 8 13 8h27q13 0 13-8v-17q16 2 27 10t11 19v0 0 0 23q0 18 6.5 26t22.5 8h387q14 0 18.5-8t4.5-23v-26q0-11 11.5-19.5t27.5-9.5v17q0 8 13 8h27q13 0 13-8v-17q16 1 27 9.5t11 19.5v641q0 12-11 20t-27 9zM256 162q0-2-0.5-4t-1.5-3.5-2-2.5l-4-2q-1-1-2.5-1.5t-3.5-0.5h-30q-2 0-3.5 0.5t-2.5 1.5l-4 2q-1 1-2 2.5t-1.5 3.5-0.5 4v30q0 5 4.5 9.5t9.5 4.5h30q6 0 10-4.5t4-9.5v-30zM256 298q0-4-2-7t-5-5-7-2h-30q-12 1-14 14v30q0 2 1 4l2 4q1 2 3 3l4 2q2 1 4 1h30q6 0 10-4t4-10v-30zM256 434q0-4-2-7t-5-5-7-2h-30q-2 0-3.5 0.5t-2.5 1.5l-4 2q-1 1-2 3t-1.5 3.5-0.5 3.5v30q0 3 1 5.5t3 4.5 5 3 5 1h30q6 0 10-4t4-10v-30zM256 570q0-3-1-5.5t-3-4.5-4.5-3-5.5-1h-30q-5 0-9.5 4t-4.5 10v30q0 4 2 7t5.5 5 6.5 2h30q6 0 10-4t4-10v-30zM324 191q-32 0-32 34v336h411q12 0 18-4t8-10.5 2-18.5v-311q0-12-4.5-19t-16.5-7h-386zM825 162q0-3-1-5.5t-3-4.5-4.5-3-5.5-1h-29q-6 0-10.5 4t-4.5 10v29q0 3 1.5 6t3.5 4.5 4.5 3 5.5 1.5h29q6 0 10-4.5t4-10.5v-29zM825 298q0-6-4-10t-10-4h-29q-6 0-10.5 4t-4.5 10v30q0 5 4.5 9.5t10.5 4.5h29q6 0 10-4.5t4-9.5v-30zM825 434q0-6-4-10t-10-4h-29q-6 0-10.5 4t-4.5 10v30q0 2 1 3.5t1.5 3.5 2.5 3l2 2q2 1 4 1.5t4 0.5h29q6 0 10-4t4-10v-30zM825 570q0-5-4-9.5t-10-4.5h-29q-3 0-5.5 1t-4.5 3-3.5 5-1.5 5v30q0 6 4.5 10t10.5 4h29q6 0 10-4t4-10v-30z" />
<glyph unicode="&#xe607;" glyph-name="uniE607" d="M946 298q-12 6-23-1l-153-70v47l-2 6q0 4-1 7t-3 6q85 18 140.5 86t55.5 156q0 103-73 175.5t-175 72.5q-39 0-76-11.5t-66.5-33-53-51-36.5-63.5q-15 24-35 44t-44.5 34.5-53 22.5-58.5 8q-93 0-158-65.5t-65-157.5q0-17 2.5-34t7.5-32.5 12-30.5 16.5-28.5 20.5-25.5 23.5-22 26.5-18q-8-7-13.5-15t-9-17.5-3.5-19.5v-227q0-28 20.5-48t48.5-20h483q14 0 27 5.5t22 14.5 14.5 21.5 5.5 26.5v12l153-70q11-7 22.5-0.5t11.5 19.5v277q-1 13-11 20zM286 334q-15 1-26.5 8t-18.5 19.5-7 26.5q0 24 16.5 48t37.5 24 37.5-24.5 16.5-48.5q0-14-7-26t-19-19-26-8h-4zM711 339q-25 0-42.5 18t-17.5 42q0 27 18.5 53.5t41.5 26.5q12 0 23.5-8t19-20 12.5-26 5-26q0-16-8-30t-22-22-30-8zM848 594q25 0 42.5-17.5t17-42-18-42-42.5-17.5q-16 0-34.5 8t-31.5 22.5-13 29.5q0 24 26.5 42t53.5 17zM712 731q25 0 42.5-17.5t17.5-42.5q0-12-5-26t-13-25-19-18.5-23-7.5q-24 0-42 25.5t-18 52.5q0 24 18 41.5t42 17.5zM576 596q16 0 34.5-8t32-22.5 13.5-30.5q0-23-27-41t-54-18q-25 0-42.5 17.5t-17 42.5 18 42.5 42.5 17.5zM567 334h-142q22 17 39 38.5t28 47.5q9-17 20.5-32.5t25-29 29.5-24.5zM411 563q11 0 21-4t17-11.5 11.5-17.5 4.5-21q0-22-16-37.5t-38-15.5q-24 0-48 16.5t-24 37.5 24 37 48 16zM289 686q15 0 27.5-7.5t19.5-19.5 7-27q0-24-16.5-47t-37.5-22.5-37.5 23.5-16.5 46 16 38.5 38 15.5zM113 511q0 14 7 26.5t19.5 19.5 27.5 7q24 0 47.5-16.5t23.5-37.5q0-14-12-26.5t-28.5-19.5-31.5-7q-34 0-48 31-5 11-5 23z" />
<glyph unicode="&#xe608;" glyph-name="uniE608" d="M1011 595h-531l212 212-37 37-232-232-232 232-37-37 212-212h-353q-5 0-9-4t-4-10v-643q0-6 4-10t9-4h998q5 0 9 4t4 10v643q0 6-4 10t-9 4zM747 21q0-4-2.5-6.5t-6.5-2.5h-637q-8 0-8 9v436q0 10 8 10h637q9 0 9-10v-436zM925 244h-79v81h79v-81zM925 379h-79v81h79v-81z" />
<glyph unicode="&#xe609;" glyph-name="uniE609" d="M912 835h-804q-19 0-32.5-13.5t-13.5-32.5v-803q0-7 1.5-13t4.5-11 7.5-9 9.5-7 11-5 12-2h804q7 0 14 2.5t13 6.5 10 10 6.5 13 2.5 15v803q0 19-13.5 32.5t-32.5 13.5zM242 47h-91v92h91v-92zM242 197h-91v92h91v-92zM242 347h-91v91h91v-91zM242 496h-91v92h91v-92zM242 646h-91v91h91v-91zM691 47h-362v300h362v-300zM691 438h-362v299h362v-299zM870 47h-91v92h91v-92zM870 197h-91v92h91v-92zM870 347h-91v91h91v-91zM870 496h-91v92h91v-92zM870 646h-91v91h91v-91z" />
<glyph unicode="&#xe60a;" glyph-name="uniE60A" d="M930-8q-3 5-9 12.5t-32.5 26.5-62.5 32q44 49 67 110.5t26 119.5-7 122.5-24.5 112-34.5 95.5-29 66-16 30l-1-1q-31 82-104 130t-193 48q-229 0-295-178v1q-7-12-16.5-30t-29.5-66-34-95.5-24-112-7-122 25.5-119.5 66.5-110q-22-9-41-19.5t-30.5-19-19.5-16.5-11-12-3-5q-12-17-18.5-49.5t-7.5-47-1-23.5h896q-1 80-30 120zM436 177l-1 4-1 19-17 8q-40 19-84 49l-1 1h-1q-22 14-45 38t-23 44v3l-1 4q-20 90-31 164 50-1 100 11.5t86 30.5 70.5 43.5 53.5 43.5 35 36q13-22 30-43.5t44.5-49.5 64.5-48 77-27q-12-74-33-161l-1-3v-4q0-19-23-43t-46-39l-1-1h-1q-21-16-41.5-28.5t-41.5-22.5l-17-8-2-18v-3q0-3-0.5-5.5t-0.5-5.5v-32q0-31 18-50.5t47-19.5q113-4 187-39-8-6-19-10.5t-24.5-9-29-8.5-33-7.5-37-6.5-40.5-5.5-43-4-45.5-2.5-47.5-1q-116-2-204.5 13t-126.5 42q74 35 185 39 29 0 47 19.5t18 50.5v43zM793 75q-30 8-65.5 14t-77.5 7q-11 0-18.5 5t-11.5 13-4 20v32q0 2 0.5 4t0.5 4v3q45 21 89 54 2 1 5 3t11.5 8.5 16.5 13.5 17.5 17.5 16.5 20.5 12 22 5 24q42 172 42 236v8q0 5-1 6 15-38 26-76.5t20-85.5 9-93-7-92-29-89.5-57-78.5zM510 864q53 0 96-10.5t72.5-27.5 52-41.5 35-50 21-55 11-54 2.5-50.5q0-6-0.5-15t-2.5-20q-26 4-51 16t-44.5 27-38 33-30.5 33.5-22 31-14 22-5 8.5l-11 23-16-20q-5-8-16-20.5t-45-42.5-71-52.5-93.5-40-113.5-15.5q-2 21-2 34 0 35 5 66.5t16.5 65.5 33 61 52 48.5 76.5 33.5 103 12zM192 593v-16q0-19 4-50t9.5-62.5 11.5-60 10-46.5l4-18q0-12 4.5-24.5t12-22.5 16.5-20 17.5-17.5 16-13 12.5-8.5l4-3q47-32 89-52 0-1 0.5-3t0.5-4v-38q0-38-33-38-79-3-141-21-24 24-41.5 52t-28.5 57-16.5 60.5-6.5 62 1.5 63 7.5 61 13 58.5 16 54.5 17 49.5zM98-96q2 22 7 41t13 30q7 14 38 34 40-37 136-54.5t209-17.5q8 0 17 1 109 1 209 18.5t139 51.5q8-5 14.5-10.5t10-8.5 7.5-7l3-4 1-2 2-2q15-21 21-70h-827z" />
<glyph unicode="&#xe60b;" glyph-name="uniE60B" d="M989 697q-20 26-48 43t-60 23-65 0q-29-5-53.5-18.5t-42.5-33.5-30-45q-79 32-171 32.5t-185-30.5q-19 39-53 64.5t-78 31.5q-50 7-96-12.5t-75-59.5q-19-28-26.5-60.5t-2-65.5 22.5-63q20-34 51-55.5t68-28.5q-1-4-2-6-2-8-4-17-1-3-1.5-6.5t-1.5-6.5-1-6q-2-8-3-18-1-9-2-19-1-9-2-19v-19q0-41 8-81 7-38 22-75 15-35 36-67.5t47-59.5q13-13 27-25.5t29-23.5q31-21 66-37 35-15 72-23 38-8 77-8t77 8q37 8 73 23 8 4 16.5 8.5t16.5 9 16 9.5 15 10l16 12q7 5 14 11t14 12.5 14 13.5q13 14 24.5 28.5t21.5 30.5q21 33 36 68 7 18 12.5 37t9.5 38q3 14 4.5 27t2.5 26.5 1 27.5v19q-1 7-2 19 0 3-0.5 6.5t-0.5 6-1 6.5q-1 9-3 18l-4 18q-1 5-2 9t-2 9q-1 1-1 3l-1 3q39 8 70.5 30.5t51.5 58.5q25 46 21.5 96.5t-33.5 92.5zM945 539q-15-27-34.5-42t-52.5-17q-14 0-26-9.5t-14-25.5q-1-5 0-11.5t1.5-12 1.5-7.5l6-18 4-18q2-8 4-19 2-9 3-18v-5q0-2 0.5-4.5t0.5-5.5v-4q1-6 1-10v-10q0-35-7-69-6-33-19-64.5t-30-58.5q-9-14-19-26.5t-21-24.5q-23-23-49-42t-56-32q-29-13-61-20t-66-7-66 7q-5 1-10.5 2.5t-10.5 3-10.5 3-10.5 3.5l-10 4q-5 2-9 4-29 13-56 32-26 18-49 42-22 23-40 51-17 27-30 58.5t-19 64.5q-7 34-7 69 0 5 0.5 10t0.5 10q0 8 1 19 2 9 3 18 2 11 4 19t4 18q1 2 2 6.5t2 9.5 2.5 10.5 3.5 9.5q3 9 2 18t-5 15.5-12 10.5-18 3q-24 0-42.5 8t-29 19.5-21.5 29.5q-4 7-7.5 16t-5.5 18.5-2.5 20 1 21.5 6 22 11.5 21q19 26 48.5 38t61.5 8q20-3 38-13t30.5-25 19.5-34q5-12 17-16t21.5-2 11.5 4q95 34 188 33.5t169-36.5q8-5 18-6t20 3.5 14 15.5q10 30 32.5 49.5t53.5 25.5q32 6 61.5-5.5t49.5-36.5q21-28 21-60.5t-14-58.5z" />
<glyph unicode="&#xe60c;" glyph-name="uniE60C" d="M900 169q0-1-1-2.5t-3-6.5-4.5-10-6.5-11.5-8.5-12-10.5-11-12.5-9-15-5.5-17.5-1q-25 3-62 42 42 51 64.5 113t22.5 131q0 79-31 150.5t-83 123.5-124 83-151 31q-105 0-194.5-52t-141.5-141.5-52-195 52-195 141.5-141.5 194.5-52q137 0 243 86 6-5 17-14.5t19.5-16 21.5-13.5 31-11 40-5q88-2 118 73 5 12 6 22zM459 698q44 0 74.5-31t30.5-74q0-29-14-53t-38-38-53-14q-43 0-74 30.5t-31 74 31 74.5 74 31zM497 386q0-4-0.5-7.5t-1.5-6.5-3-6l-4-6q-2-3-4.5-5t-5.5-3.5-6.5-3-7-2-7.5-0.5q-16 0-28 11.5t-12 28 12 28.5 28 12q28 0 38-26 2-7 2-14zM252 280q-43 0-74 31t-31 74.5 31 74 74.5 30.5 74-30.5 30.5-74.5q0-11-2-21t-6-19.5-10-18-13-15.5-15.5-13-17.5-9.5-19.5-6-21.5-2.5zM459 74q-43 0-74 30.5t-31 74 31 74 74 30.5q22 0 41.5-8t33.5-22 22-33.5 8-40.5q0-58-48-89-26-16-57-16zM665 280q-28 0-52 14t-38 38.5-14 52.5q0 22 8 41t22 33 33.5 22.5 40.5 8.5q29 0 53-14t38-38 14-52.5-14-53-38-38.5-53-14z" />
<glyph unicode="&#xe60d;" glyph-name="uniE60D" d="M796 235q-3 2-7 2.5t-7.5 0-7-2-6.5-4-5-6.5q-6-12-14-23.5t-16.5-22-18.5-20.5q-5-5-10-9.5t-10-8.5q-11-9-22-17l-24-14-12-6q-6-3-13-6-4-2-9-4l-8-2q-5-2-9-4-13-4-27-7-5-1-9.5-1.5t-9.5-1.5-10-1q-14-1-29-1t-29.5 1-28.5 4-27 7q-3 1-6.5 2.5t-7 2.5-6.5 2.5-6 2.5q-13 5-25 12t-23.5 14.5-22.5 16.5q-5 4-10 8.5t-10 9.5q-10 10-19 21-2 2-4 5t-4 5.5-4 5.5l-4 6q-4 5-7.5 11t-6.5 12q-5 9-14.5 12t-18.5-2-12-14.5 2-18.5q8-14 17-27.5t19-25.5q5-7 10.5-12.5t10.5-11.5q12-12 24.5-22t25.5-19q7-4 13.5-8.5t14.5-8.5q14-7 29-14 3-1 6-2.5t6-2.5l12-4q3-1 7-2 15-5 32-8 16-4 33-5 5-1 11-1.5t11-0.5h12q17 0 34 2 17 1 33 5 8 1 16.5 3t16 4.5 15.5 5.5 15 6q15 7 29.5 14.5t27.5 16.5 26 19q4 4 8 7l8 8q4 3 7 7 12 11 22 23.5t19 25.5q5 7 9 14l8 14q5 9 2 18.5t-12 14.5zM988 548v6l-2 8q0 3-1 7-2 10-5.5 20.5t-7.5 20-9 18.5q-2 5-5 9.5t-5.5 8.5-6 8.5-6.5 8.5q-7 8-14 15t-15 13.5-17 12.5l-6 4q-3 2-6 3.5t-6 3.5q-4 3-9 5t-9.5 4-9.5 4-10 3q-11 4-21 6-5 1-10.5 1.5t-10.5 1.5q-11 1-22 1t-22-1-22-3q-2-1-5-1.5t-5.5-1-5-1.5-4.5-2q-4-1-7-2t-6.5-2-6.5-3q-10-4-19-9t-18-11q-8-5-16-12-4-3-8-6.5t-8-7.5v-1q-1 1-3 1.5t-3.5 1-3.5 1.5q-3 1-7 2l-8 2q-4 1-8.5 2t-8.5 2q-16 3-33 5-34 4-68 0-17-2-33-5-8-2-16.5-4t-15.5-4q-2-1-3.5-1.5t-3.5-1-3-1.5v1q-4 4-8 7.5t-8 6.5q-7 6-16 12l-6 4q-3 2-6 3.5t-6 3.5q-5 3-9.5 5t-9.5 4l-20 8-10 2q-5 2-10 3l-22 3q-22 2-44 0-10-1-21-3t-21-6q-10-3-20-7-9-4-18-9-10-5-18-11-9-5-17-12-2-2-5-4.5t-6-5.5l-4-4q-7-7-14-15t-12-17q-3-4-6-8.5t-5-9.5q-5-9-9-19-4-9-8-19 0-3-1-5.5t-1-4.5l-2-6q0-2-1-5-2-11-3-21-1-11-1-22t1-22 3-22q1-5 2.5-10t3-10.5 3.5-10 4-9.5q4-10 9-19t11-18q3-4 6-8.5t6-8.5q7-7 14-14.5t15-14.5q4-3 8.5-6t8.5-6q8-6 18-11l9-4 9-5q10-4 20-7 4-1 7-1 8 0 14.5 4.5t9.5 12.5q1 6 0 12.5t-5.5 11-10.5 6.5q-8 3-15.5 6t-14.5 7q-4 2-7.5 4t-6.5 4q-7 5-13 10t-11.5 10.5-11 12-9.5 12.5q-5 7-8 14-4 7-7 15-4 7-6 15-3 8-4 16-1 4-1.5 8t-1.5 8q-1 9-1 17.5t1 17.5q1 2 1 5t0.5 6 1.5 5q1 8 3.5 16t6 15.5 7.5 14.5q4 8 8 14t10 13q1 2 3 4t3.5 4 3.5 4q3 2 6 5t6 5.5 6.5 5 6.5 4.5 6.5 4 7.5 4q2 1 3.5 2t3.5 2 3.5 2 3.5 1q8 4 16 6l16 4q2 1 5 1.5t5.5 0.5 5.5 1q17 1 34 0 5-1 9-1.5t8-1.5l16-4q8-2 15-6 8-3 15-7 7-3 14-8 6-4 12.5-9.5t11.5-10.5 9-10q4-4 10-6 1-1 2-1h1l4-1q7-1 12 1 10 4 21 7 13 5 27 7.5t29 4.5q29 3 58 0 5-1 10-1.5t9.5-1.5 9.5-2q14-2 27-7 11-3 22-7 2-1 4-1.5t5-0.5 7 1 7 3.5 5 5.5h1v1l8 8q2 1 3.5 3t3.5 4 5 3q6 6 12 10l8 4 6 4 8 4q3 2 7 3 7 4 15 6l16 4q8 2 17 3 17 1 34 0 3-1 5.5-1t5.5-0.5 5-1.5q2 0 3-1h4q1-1 3-1.5t3.5-1 2.5-0.5q8-2 16-6 3-1 7-3t7-4q7-3 14-8 2-1 4.5-3t4.5-3.5 4-3.5l12-10 10-12q3-3 5.5-6.5t4.5-6.5q1-2 2-3.5t2-3.5 2.5-3.5 1.5-3.5q2-3 4-7t3-7q4-8 6-16 3-8 4-16 1-4 1.5-8t1.5-8q1-9 1-17 0-5-0.5-9t-0.5-9l-3-16-4-16q-2-8-6-15-1-4-3-7.5t-4-7.5q-3-7-7.5-13.5t-10-13-11-12-11.5-10.5-13-10q-2-1-4.5-2.5t-4.5-3-5-2.5q-7-4-14.5-7t-15.5-6q-9-3-14-12t-2-18q1-3 3-6t4-5 4.5-3.5 5.5-2 7-0.5q3 0 7 1 2 0 4 1t4 1.5 4 1.5 4 1.5 4 1.5q9 4 18.5 9t17.5 11q2 1 4.5 2.5t4.5 3 4 3.5 4 3q8 7 15 14t14 15 12 17q3 4 6 8.5t5 9.5q1 2 2.5 4.5t2.5 4.5 2 4.5 2 5.5q4 9 8 20 1 5 2.5 10t2.5 10q2 11 3 22t1 22v10q0 6-1 12z" />
<glyph unicode="&#xe60e;" glyph-name="uniE60E" d="M66-35v834h890v-834h-890zM733 243v111h-444v-334h444v223zM122 20h111v167h-111v-167zM122 243h111v111h-111v-111zM122 409h111v112h-111v-112zM900 743h-778v-167h111v167h56v-334h444v334h56v-167h111v167zM900 521h-111v-112h111v112zM900 354h-111v-111h111v111zM900 187h-111v-167h111v167z" />
<glyph unicode="&#xe60f;" glyph-name="uniE60F" d="M126 777h465v-157q0-33-22.5-56t-53.5-23h-242v-532h-147v768zM423 602q21 0 21 24v86h-171v-110h150zM509 517v-78h82v-62h-82v-92h75v-225q0-9-3-17.5t-7.5-15-11-11.5-14-8-16.5-3h-235v280h68v92h-78v62h78v78h144zM468 224h-55v-154h34q10 0 17 7t7 17v130h-3zM614 121v594h123v-590h-123v-4zM761 787h133v-703q0-21-9-39t-25-29-34-11h-133v62h44q8 0 14.5 6.5t6.5 16.5v697h3z" />
<glyph unicode="&#xe610;" glyph-name="uniE610" d="M244 583h89l-40-222h101l38 222h90l14 80h-278zM677 462l-18 201h-100l50-302h101l159 302h-101zM676 128h-323q-12 0-20-8t-8-20 8-20 20-8h323q11 0 19.5 8t8.5 20q0 6-2.5 11t-6 9-9 6-10.5 2zM989 864h-954q-16 0-25-8.5t-9-24.5v-609q0-15 12.5-24.5t29.5-9.5h946q16 0 25 9t9 25v609q0 8-2.5 14t-6.5 10.5-10.5 6.5-14.5 2v0zM973 255q0-3-1-5.5t-2.5-4.5-3.5-3.5-4.5-2-5.5-0.5h-888q-17 0-17 16v543q0 16 17 16h888q17 0 17-16v-543z" />
<glyph unicode="&#xe611;" glyph-name="uniE611" d="M601-5l-67 67 335 335-335 335 67 67 402-402zM61 62l335 335-335 335 67 67 402-402-402-402z" />
<glyph unicode="&#xe612;" glyph-name="uniE612" d="M512 828q90 0 172.5-35t142-94.5 94.5-142 35-172.5-35-172.5-94.5-142-142-94.5-172.5-35q-72 0-140 22.5t-122.5 63.5-95.5 95.5-63.5 122.5-22.5 140q0 90 35 172.5t94.5 142 142 94.5 172.5 35zM512 896q-139 0-257-68.5t-186.5-186.5-68.5-257 68.5-257 186.5-186.5 257-68.5 257 68.5 186.5 186.5 68.5 257-68.5 257-186.5 186.5-257 68.5zM354 125q-2 0-4 0.5t-4 0.5-3.5 1-3.5 2-3 2q-20 13-13 35l54 179-141 110q-18 14-10.5 35.5t30.5 21.5h172l53 175q3 7 9 12.5t14 6.5 16 0 14-6.5 9-12.5l53-175h172q23 0 30.5-21.5t-10.5-35.5l-141-111 54-177q7-22-12.5-35.5t-37.5 0.5l-139 107-139-107q-8-7-19-7zM349 448l85-66q17-14 11-35l-32-103 79 61q20 15 40 0l78-61-31 103q-3 9 0 18.5t11 15.5l85 67h-103q-23 0-30 23l-30 97-30-97q-2-7-6.5-12t-10.5-8-13-3h-103z" />
<glyph unicode="&#xe613;" glyph-name="uniE613" d="M386 699q-40-16-75.5-40t-64.5-55.5-50-69.5h134q19 96 56 165zM502 534v188q-21-1-41.5-4t-41.5-9q-42-71-62-175h145zM830 534q-15 28-35 52.5t-43.5 45.5-50.5 37.5-56 27.5q16-29 30.5-70t25.5-93h129zM611 709q-40 11-82 13v-188h145q-20 103-63 175zM644 22q122 47 186 164h-130q-5-28-12-53t-14.5-45-14.5-36-15-30zM529 186v-187q44 2 82 12 42 70 62 175h-144zM197 186q31-57 80-99.5t110-65.5q-38 68-57 165h-133zM420 11q10-3 20-5t20-3.5 20.5-2.5 21.5-2v188h-145q21-106 63-175zM232 249v234h-29v-184l-123 184h-32v-234h30v184l123-184h31zM454 455v28h-169v-234h174v27h-143v80h129v27h-129v72h138zM543 249h32l49 178q3 11 7 27 1-2 2.5-9t4.5-18l50-178h29l65 234h-32l-36-151q-3-9-5-18t-3.5-17-3.5-15q-5 38-18 82l-34 119h-37l-44-158q-2-6-11-43-1 8-2.5 15.5t-3.5 15.5l-4 16-35 154h-32zM976 348.5q-10 14.5-30 23.5-14 6-52 15-19 4-30.5 8t-15.5 9q-9 8-9 20 0 4 0.5 7.5t2 6.5 4.5 6l5 5q13 10 41 10 27 0 41-11t16-33l30 2q-1 20-11.5 36.5t-30.5 25-46 8.5q-24 0-43-8t-29-23.5-10-33.5q0-16 8-29t25-22q13-7 45-14.5t42-11.5q3-1 6.5-2.5t6-3.5 4.5-3.5 4-3.5q3-5 4.5-9.5t1.5-10.5q0-10-6.5-19.5t-20-14.5-31.5-5q-20 0-36 7t-23.5 18-9.5 29l-29-3q0-23 12.5-42t34-28 52.5-9q26 0 46 9t30.5 25.5 10.5 35.5-10 33.5z" />
<glyph unicode="&#xe614;" glyph-name="uniE614" d="M224 348l-130 196h-62v-320h64v205l136-205h56v320h-64v-196zM445 362h94v64h-94v54h167v64h-231v-320h236v64h-172v74zM929 544l-27-175-45 175h-67l-45-174-28 174h-64l51-320h66l55 191 50-191h67l50 320h-63z" />
<glyph unicode="&#xe615;" glyph-name="uniE615" d="M289 896q-5 0-9.5-1t-8.5-3.5-8-5.5q-7-7-9-16.5t0-18.5 9-16l421-421q4-4 7-9t4.5-10 1.5-11q0-18-13-30l-421-421q-7-7-9-16t0-18.5 9-16.5q11-10 25.5-10t25.5 10l421 421q33 34 33 81 0 8-1 15t-3 14.5-4.5 14-6.5 13-8.5 12.5-9.5 12l-421 421q-11 10-25 10z" />
<glyph unicode="&#xe616;" glyph-name="uniE616" d="M712 318h-188v259q0 15-9.5 26t-23 11-23.5-11-10-26v-291q0-14 11-23 4-5 10-7.5t12-2.5h221q7 0 13.5 2.5t11.5 7 8 10.5 3 12.5-3 12.5-8 10.5-11.5 7-13.5 2.5zM512 859q-98 0-187.5-38t-154-103-102.5-154-38-187 38-187.5 102.5-154 154-103 187.5-38.5 187.5 38.5 154 103 102.5 154 38 187.5q0 78-24 151.5t-69 133-104 104-132.5 69-152.5 24.5zM512-34q-112 0-206.5 55t-149.5 149.5-55 206 55 206.5 149.5 150 206.5 55q67 0 129.5-21t113-59 88.5-88.5 59-113 21-129.5q0-84-32.5-160t-87.5-131-131-87.5-160-32.5z" />
<glyph unicode="&#xe617;" glyph-name="uniE617" d="M850 289q-32 70-48 130t-17 93.5 6 61.5 11 34.5 8 10.5q1 1 1 2.5t-1 2.5q-1 3-4 1-6-2-18-8t-38-25-46-42-33-60.5-7-79.5q-13 12-27.5 26.5t-38 44-41.5 60-34 73-21 84.5 4 92.5 34 99.5q1 1 1 2.5t-1 2.5q-2 2-5 1-7-3-20.5-10.5t-44-32-52.5-55.5q-104-140-32-350 24-93-41-177 12 45 11 90-4 122-107 181-2 2-4 0.5t-2-4.5q27-153-23-214-42-51-65-120t-6-133q33-118 200-178 41-13 86-21 3-1 4 2.5t-2 5.5q-19 8-34 18t-28.5 26-20 34.5-4.5 45 15 56.5q48 104 26 156 65-36 53-98 0-3 2-4.5t4.5 0.5 8 6.5 17 18 22 28 21 36.5 15.5 44 2.5 49-14.5 54q11-7 21.5-15.5t24-26.5 21-39.5 7-55-13.5-71.5q-7-25 1-51t14-34.5 12-14.5q3-2 5 0 1 0 1.5 1.5t0.5 2.5q-1 3-2.5 6.5t-3.5 13.5-2.5 19.5 1 22.5 5.5 24.5 13 23.5 23 21q-12-70 14-101 44-53 36-108-7-44-51-72-3-2-1-5 0-2 1.5-2.5t3.5-0.5q158 53 208 163 46 100-11 238z" />
<glyph unicode="&#xe618;" glyph-name="uniE618" d="M364 47q-19 39-25.5 72.5t-1 61.5 15 49 27.5 46q19 29 33 60.5t18 49.5l4 17q1-1 3-4.5t8-15 8-24 4.5-32-3.5-38.5q41 45 56.5 111.5t6.5 104.5q51-35 87.5-90t53-116.5 11-128-34.5-123.5q62 35 105.5 75t67 79.5 34.5 80.5 8.5 80-11.5 76.5-26 71.5-34.5 62.5-37 51-33.5 37-23 21.5q16-28 13.5-73t-28.5-68q-18 67-47 121t-57.5 83.5-54.5 49.5-43 26l-16 7q22-149-148-357-3 43-8.5 70t-23.5 59q-3-48-43.5-129.5t-48.5-120.5q-19-93 22-163.5t162-138.5v-1z" />
<glyph unicode="&#xe619;" glyph-name="uniE619" d="M910 472l-265 38-119 241-119-241-265-38 192-188-45-264 237 124 237-124-45 264zM526 203l-168-89 31 188-136 133 189 27 84 171 84-171 188-27-136-133 32-188z" />
<glyph unicode="&#xe61a;" glyph-name="uniE61A" d="M983 503l-328 50-147 313-147-313-328-50 237-243-56-344 294 163 294-163-56 344zM508 148l-220-124 42 249-190 194 257 34 111 237 111-237 256-37-188-191 39-250z" />
<glyph unicode="&#xe61b;" glyph-name="uniE61B" d="M318-128q-20 41-29 78.5t-9 66 9 58 20 50.5 29 47q16 24 29.5 49.5t21 45.5 13 37 7.5 26l2 9q1-2 4-6.5t10.5-20 10.5-31.5 5.5-41.5-3.5-50.5q54 60 74 147t8 137q67-47 114.5-119t69-152.5 15-168-44.5-161.5q80 45 137.5 97.5t88 104 45.5 106 11 105.5-15.5 100.5-34 93.5-45.5 81.5-48 67.5-43.5 49-30.5 28q6-14 10-29.5t6-32.5 1-34.5-5-33.5-12-30.5-20-24.5q-60 229-214 337-41 29-72 39 29-194-195-469-3 57-10.5 92.5t-30.5 77.5q-4-63-56-167-51-103-63-151-1-6-2-10-5-24-7-46.5t-1-44 5-42 11.5-40.5 18.5-39 26-38 34.5-37 42.5-36.5 51-37 61-36.5z" />
<glyph unicode="&#xe61c;" glyph-name="uniE61C" d="M820 413l-552 349q-17 11-35 1t-18-30v-698q0-20 18-30 8-4 16-4 10 0 19 5l552 349q7 5 11.5 12.5t4.5 16.5q0 19-16 29z" />
<glyph unicode="&#xe61d;" glyph-name="uniE61D" d="M905 433q-16 9-159 97-549 338-573 352-21 11-39 7.5t-30-19.5-12-37v-900q0-33 27-48.5t52 0.5q21 12 193.5 118t351 216 189.5 116q27 17 27 49.5t-27 48.5z" />
<glyph unicode="&#xe61e;" glyph-name="uniE61E" d="M169 887q-33 19-65 0.5t-32-56.5v-894q0-38 32-56 15-9 32.5-9t32.5 9l772 447q32 19 32 56.5t-33 55.5z" />
<glyph unicode="&#xe61f;" glyph-name="uniE61F" d="M523 776h-246v-67h246v67zM680 653h101l-168 168v-481h67v313zM523 619h-246v-67h246v67zM523 463h-246v-67h246v67zM392 209h-8q-5 0-9.5 0.5t-7.5 1.5q2-13 2-46h-11q-5 0-8.5 0.5t-8.5 0.5v-21q4 1 8.5 1t8 0.5 11.5 0.5v-41q-15 0-27 1v-21q4 0 8 0.5t8.5 0.5 10.5 1v-44q-32 0-44 1v-22q12 2 44 2 0-29-2-52h22v220q0 3 1.5 6t3.5 4q4 2 3 4t-5 2zM437 88q31 0 42-2v22q-3 0-6-0.5t-9-0.5h-27v40q15 0 23-0.5t12.5-0.5 11.5-1v22q-14-2-47-2v29q0 3 2 5.5t3 3.5q6 2 3 4-1 2-4 2-6-1-13 0t-13 2q0-3 0.5-6.5t1-7.5 0.5-9v-217h23q-3 26-3 54 23 0 32.5-0.5t17.5-1.5v22q-13-2-50-2v45zM328 105q-14-6-23-9v39q7 0 12.5-0.5t10.5-1.5v23q-7-1-23-2v38q1 7 5 10 4 4 3 5.5t-7 1.5q-9 0-24 2 3-16 3-57-20 0-31 2v-23q10 2 31 3v-47q-21-6-35-8 0-3 1-7l2-6q1-4 1.5-7t1.5-7q16 10 29 15v-56q0-6-4-7.5t-22 0.5q9-15 9-27 24 2 30.5 7t6.5 19v73q15 5 23 7-1 10 0 20zM664 89q48 35 61 36v23q-21-3-71-3t-70 3v-22q4 0 9.5 0.5t12 1 13.5 0.5h71l-38-27q-6 5-11.5 10t-10.5 8l-13-14q15-9 27-23-46 0-75 2v-21q31 1 75 1v-61q0-6-6.5-8t-29.5 1q10-14 10-28 14 1 23.5 2.5t14.5 4.5 7.5 6.5 2.5 8.5v74h48l-11-25 24-5 17 50q-24-2-73-2zM649 219l-25-5q6-15 10-27-41 0-63 0.5t-39 1.5q5-98 0-135t-26-66q7-2 12.5-5t11.5-8q18 33 23 66.5t5 125.5h118q54 0 70-2v24q-11-1-30.5-1.5t-57.5-0.5q-1 5-4 16t-5 16z" />
<glyph unicode="&#xe620;" glyph-name="uniE620" d="M523 776h-246v-67h246v67zM680 508v313h-67v-481l168 168h-101zM523 619h-246v-67h246v67zM523 463h-246v-67h246v67zM392 209h-8q-5 0-9.5 0.5t-7.5 1.5q2-13 2-46h-11q-5 0-8.5 0.5t-8.5 0.5v-21q4 1 8.5 1t8 0.5 11.5 0.5v-41q-15 0-27 1v-21q4 0 8 0.5t8.5 0.5 10.5 1v-44q-32 0-44 1v-22q12 2 44 2 0-29-2-52h22v220q0 3 1.5 6t3.5 4q4 2 3 4t-5 2zM437 88q31 0 42-2v22q-3 0-6-0.5t-9-0.5h-27v40q15 0 23-0.5t12.5-0.5 11.5-1v22q-14-2-47-2v29q0 3 2 5.5t3 3.5q6 2 3 4-1 2-4 2-6-1-13 0t-13 2q0-3 0.5-6.5t1-7.5 0.5-9v-217h23q-3 26-3 54 23 0 32.5-0.5t17.5-1.5v22q-13-2-50-2v45zM328 105q-14-6-23-9v39q7 0 12.5-0.5t10.5-1.5v23q-7-1-23-2v38q1 7 5 10 4 4 3 5.5t-7 1.5q-9 0-24 2 3-16 3-57-20 0-31 2v-23q10 2 31 3v-47q-21-6-35-8 0-3 1-7l2-6q1-4 1.5-7t1.5-7q16 10 29 15v-56q0-6-4-7.5t-22 0.5q9-15 9-27 24 2 30.5 7t6.5 19v73q15 5 23 7-1 10 0 20zM649 219l-25-5q6-15 10-27-41 0-63 0.5t-39 1.5q5-98 0-135t-26-66q7-2 12.5-5t11.5-8q18 33 23 66.5t5 125.5h118q54 0 70-2v24q-11-1-30.5-1.5t-57.5-0.5q-1 5-4 16t-5 16zM664 89q48 35 61 36v23q-21-3-71-3t-70 3v-22q4 0 9.5 0.5t12 1 13.5 0.5h71l-38-27q-6 5-11.5 10t-10.5 8l-13-14q15-9 27-23-46 0-75 2v-21q31 1 75 1v-61q0-6-6.5-8t-29.5 1q10-14 10-28 14 1 23.5 2.5t14.5 4.5 7.5 6.5 2.5 8.5v74h48l-11-25 24-5 17 50q-24-2-73-2z" />
<glyph unicode="&#xe621;" glyph-name="uniE621" d="M372 814l-50-50 300-300-300-300 50-50 350 350z" />
<glyph unicode="&#xe622;" glyph-name="uniE622" d="M339 85q-8 0-16 3t-14 9q-12 13-12 30.5t12 30.5l310 310-310 310q-12 13-12 30.5t12 30.5q8 8 19 11t22 0 19-11l341-341q12-12 12-30t-12-30l-341-341q-13-12-30-12z" />
<glyph unicode="&#xe623;" glyph-name="uniE623" d="M481 133l-38 37-365 365q-13 13-13 31.5t13 31.5l38 37q8 9 19.5 12t23 0 19.5-12l334-333 334 333q13 13 31 13t31-13l38-37q13-13 13-31.5t-13-31.5l-365-365-38-37q-13-13-31-13t-31 13z" />
<glyph unicode="&#xe624;" glyph-name="uniE624" d="M386 680q0 18 1 34t3.5 29.5 6.5 24.5 8.5 20.5 10.5 16.5 13 12.5 15.5 9 17.5 5 19 1.5q31 0 52-15.5t32.5-49.5 11.5-88v-589q0-156-96-156-47 0-71 38t-24 118v589z" />
<glyph unicode="&#xe625;" glyph-name="uniE625" d="M512 468q-1-1-2-2.5t-2-1.5l-1-2-155-156-173-172q-10-10-21.5-13.5t-25.5 0.5q-9 3-16 9-28 27-41 42-8 9-10.5 19.5t0.5 21.5 12 20l401 401q22 21 48 13 6-2 10.5-5.5t9.5-8.5q89-88 355-354l34-34q6-6 11-12 25-25 8-55-2-4-5-7-35-35-41-40-7-7-15-10t-16-2.5-16 4-15 10.5l-3 4q-232 231-326 325-1 1-3 4z" />
<glyph unicode="&#xe626;" glyph-name="uniE626" d="M522 854q-98 0-187.5-38t-154-102.5-102.5-154-38-187.5q0-79 24.5-152.5t69-132.5 103.5-104 133-69 152-24q98 0 187.5 38t154 102.5 102.5 154 38 187.5-38 187.5-102.5 154-154 102.5-187.5 38zM448 147q-27-25-64.5-24t-61.5 28q-17 18-21.5 41.5t3 46 25.5 39.5q13 12 30.5 18.5t34.5 6 33-8 29-20.5q24-28 22-65t-30-62zM597 162q-12 98-77 170-23 26-51 45t-58 31.5-63 18.5v71q135-20 224-118 28-31 48.5-66.5t32-73.5 15.5-78h-71zM774 162q-6 81-36.5 155t-86.5 135q-120 132-303 152v71q102-9 194-53.5t162-121.5q129-142 140-338h-70z" />
<glyph unicode="&#xe627;" glyph-name="uniE627" d="M949-37h-223q33 17 63 39t57 48q65 66 101 150 37 88 37 184 0 24-2.5 47.5t-7 46.5-11.5 45.5-16 44.5q-12 28-27.5 54t-34 50-39.5 46q-33 32-70.5 57.5t-79.5 43.5q-29 12-59.5 20t-61.5 12.5-63 4.5q-96 0-184-37-84-36-149.5-101.5t-101.5-149.5q-37-88-37-184t37-184q36-84 101.5-149.5t149.5-101.5q88-37 184-37h437q7 0 13 3.5t9.5 9.5 3.5 13q0 4-1.5 8t-3.5 7-5.5 5.5-7.5 3.5-8 1zM286 274q-29 0-54 14t-39 39-14 54q0 45 31.5 76.5t76 31.5 76-31.5 31.5-76-31.5-76-76.5-31.5zM512 51q-45 0-76.5 31.5t-31.5 76 31.5 76 76.5 31.5 76.5-31.5 31.5-76-31.5-76-76.5-31.5zM512 501q-29 0-54 14.5t-39.5 39.5-14.5 54q0 44 31.5 75.5t76.5 31.5 76.5-31.5 31.5-75.5q0-22-8.5-42t-23-34.5-34.5-23-42-8.5zM629 386q0 22 8.5 41.5t23 34 34.5 23 42 8.5q29 0 54-14t39-39 14-54q0-45-31.5-76.5t-76-31.5-76 31.5-31.5 76.5zM512 665q-9 0-17.5-2.5t-15.5-8-12.5-12.5-8-15.5-2.5-17.5q0-15 7.5-28.5t20.5-21 28-7.5q23 0 39.5 16.5t16.5 40-16.5 40-39.5 16.5zM512 215q-23 0-39.5-16.5t-16.5-40 16.5-40 39.5-16.5 39.5 16.5 16.5 40-16.5 40-39.5 16.5zM793 386q0 15-7.5 28t-20.5 20.5-28 7.5q-24 0-40.5-16.5t-16.5-39.5q0-12 4.5-22.5t12-18 18-12 22.5-4.5q23 0 39.5 16.5t16.5 40.5zM286 438q-6 0-12.5-1.5t-12-4.5-10.5-7-9-8.5-6.5-10-4-12-1.5-13.5q0-9 2.5-17.5t8-15.5 12.5-12 15.5-8 17.5-3q24 0 40.5 16.5t16.5 39.5q0 16-7.5 29t-20.5 20.5-29 7.5z" />
<glyph unicode="&#xe628;" glyph-name="uniE628" d="M891 68h-90q87 67 137.5 167t50.5 214q0 98-38.5 187.5t-103 154-154 103-187.5 38.5-187.5-38.5-154-103-102.5-154-38-187.5 38-187.5 102.5-154 154-102.5 187.5-38h385q20 0 35 14.5t15 35.5-15 36-35 15zM506 817q44 0 74.5-31t30.5-74.5-30.5-74-74-30.5-74.5 30.5-31 74.5q0 12 3 24t8 22 12 19.5 16.5 16.5 19.5 12 22 8 24 3zM556 471q0-14-7-25.5t-18-18-25-6.5q-21 0-35.5 14.5t-14.5 35.5q0 13 7 24.5t18.5 18 24.5 6.5q21 0 35.5-14.5t14.5-34.5zM265 334q-57 0-96.5 40t-39.5 96.5 39.5 96.5 96 40 96.5-40 40-96q0-37-18-68.5t-49.5-50-68.5-18.5zM506.5 124q-43.5 0-74.5 31t-31 74q0 29 14 53t38.5 38 52.5 14q14 0 28-3.5t25.5-10.5 21-16.5 16.5-21 10.5-25 3.5-28.5q0-43-30.5-74t-74-31zM611 470.5q0 56.5 40 96.5t96.5 40 96.5-40 40-96q0-37-18.5-68.5t-50-50-68.5-18.5q-56 0-96 40t-40 96.5z" />
<glyph unicode="&#xe629;" glyph-name="uniE629" d="M928 64h-832q-40 0-68 28t-28 68v576q0 40 28 68t68 28h832q40 0 68-28t28-68v-576q0-40-28-68t-68-28zM96 768q-13 0-22.5-9.5t-9.5-22.5v-576q0-13 9.5-22.5t22.5-9.5h832q13 0 22.5 9.5t9.5 22.5v576q0 13-9.5 22.5t-22.5 9.5h-832zM192 0h640v-64h-640v64zM445 571q-26 13-43.5 4t-17.5-35v-185q0-27 17.5-36t42.5 5l168 90q25 14 25 33.5t-25 33.5z" />
<glyph unicode="&#xe62a;" glyph-name="uniE62A" d="M801 337l1 346v3q0 5-2 9t-4.5 7-6 5.5-8 4-8.5 1.5h-348l-119 119q-83-83-112.5-195t0-223.5 112.5-194.5q63-62 144-94.5t163-32.5 163 32.5 143 94.5zM268 321q-107 191-21 370 26 53 56 83l35-39q-3 0-24-29-85-120-65-292 6-46 19-93zM741 397l-257 257h257v-257zM372 40q-1 4-1.5 19t-1 20.5-2.5 19-4.5 19-8 15-12.5 13.5-17.5 7.5-23.5 3.5q-14 0-25-3.5t-18-8-12-13-8-15-4.5-19-2-19-1-20.5-0.5-19q-12-26-29.5-38t-33-12.5-29.5-1.5-23-12.5-10-39.5h391q0 23-6.5 35t-16.5 14-23.5 3.5-26.5 3.5-27 14-24 34zM246 44q-4 31 1.5 52.5t15.5 31 20.5 14 18 5 7.5-0.5q-4-3-11-9t-23.5-32.5-28.5-60.5z" />
<glyph unicode="&#xe62b;" glyph-name="uniE62B" horiz-adv-x="1025" d="M958 481h-41v123q0 8-3.5 14.5t-9.5 11.5q-46 38-96.5 57t-105.5 19l-7-1q1 14 1 25 0 83-58.5 142t-141.5 59-142-59-59-142q0-11 2-24-107-3-196-76-6-5-9.5-11.5t-3.5-14.5v-123h-21q-28 0-47.5-20t-19.5-48v-67q0-27 19.5-46.5t47.5-19.5h21v-241q0-21 19-30 7-4 15-4 11 0 20 7 4 2 8 5t21 11 34 14 44.5 11 54.5 5q89 0 172-46 18-7 31-6t22 6q86 46 172 46 20 0 39.5-2.5t35-6.5 30-9 24-9.5 18-9 11.5-6.5 4-3q9-7 20-7 8 0 15 4 18 9 18 30v241h42q27 0 46.5 19.5t19.5 46.5v67q0 28-19.5 48t-46.5 20zM305 125q-80 0-149-30v185h45q18 0 33 9t23.5 24 8.5 33v67q0 28-19 48t-46 20h-45v107q67 51 148 51 29 0 59-7.5t49-16 37-18.5l4-5 6-6v-492q-77 31-154 31zM851 95q-75 30-149 30-39 0-78.5-8t-76.5-23v497q9 5 19 10.5t26 12.5 32.5 12.5 37.5 9 41 3.5q77 0 147-51v-107h-26q-27 0-46.5-20t-19.5-48v-67q0-27 19-46.5t47-19.5h26v-185h1z" />
<glyph unicode="&#xe62c;" glyph-name="uniE62C" d="M64 384h448v-448h50l398 896-896-398v-50z" />
<glyph unicode="&#xe62d;" glyph-name="cai-copy" d="M845.74 245.692h-166.196c12.083-28.194 25.959-101.052 17.869-167.339-6.434-52.906-37.205-93.457-82.261-108.766-33.433-11.349-68.642-5.854-87.637 13.619-22.63 23.159-33.246 66.868-44.493 113.067-7.356 30.225-14.967 61.542-24.422 77.67-27.323 46.575-84.497 67.858-96 71.731h-78.831c-15.497 0-28.092 12.612-28.092 28.16v394.667c0 15.599 12.612 28.177 28.092 28.177h75.981c23.467 12.766 110.933 56.405 212.19 56.404h189.524c31.198 0 84.94-12.117 105.080-45.568 20.258-33.86 63.114-342.374 63.113-376.559 0.017-47.122-45.926-85.265-83.917-85.265zM818.364 678.451c-4.198 7.066-32 18.227-56.9 18.227h-189.524c-100.353 0-188.843-56.371-189.713-56.371h-0.017c-4.233 0-8.893 0-14.165 0h-56.218v-338.261h56.182c2.287 0 4.335-0.785 6.468-1.331 0.444-0.102 0.87 0.017 1.314-0.102 0.222-0.051 0.751-0.205 1.485-0.444 0.734-0.273 1.536-0.375 2.219-0.734 17.067-5.666 89.993-32.887 127.454-96.922 13.602-23.262 21.862-57.071 30.566-92.842 8.141-33.348 18.193-74.82 29.935-86.869 2.662-2.304 15.838-5.239 32.273 1.281 13.5 5.341 36.864 20.395 41.865 61.373 11.059 90.3-27.563 176.265-27.938 177.135-4.028 8.755-3.26 18.654 1.86 26.743 5.171 8.055 14.029 12.698 23.62 12.698h206.559c7.594 0 27.733 13.261 27.733 28.86 0.051 37.615-43.298 320.853-55.057 347.563zM94.327 698.658h134.741v-435.507h-134.741v435.507z" />
<glyph unicode="&#xe62e;" glyph-name="cai-copy-copy" d="M178.26 522.308h166.196c-12.083 28.194-25.959 101.052-17.869 167.339 6.434 52.906 37.205 93.457 82.261 108.766 33.433 11.349 68.642 5.854 87.637-13.619 22.63-23.159 33.246-66.868 44.493-113.067 7.356-30.225 14.967-61.542 24.422-77.67 27.323-46.575 84.497-67.858 96-71.731h78.831c15.497 0 28.092-12.612 28.092-28.16v-394.667c0-15.599-12.612-28.177-28.092-28.177h-75.981c-23.467-12.766-110.933-56.405-212.19-56.404h-189.524c-31.198 0-84.94 12.117-105.080 45.568-20.258 33.86-63.114 342.374-63.113 376.559-0.017 47.122 45.926 85.265 83.917 85.265zM205.636 89.549c4.198-7.066 32-18.227 56.9-18.227h189.524c100.353 0 188.843 56.371 189.713 56.371h0.017c4.233 0 8.893 0 14.165 0h56.218v338.261h-56.182c-2.287 0-4.335 0.785-6.468 1.331-0.444 0.102-0.87-0.017-1.314 0.102-0.222 0.051-0.751 0.205-1.485 0.444-0.734 0.273-1.536 0.375-2.219 0.734-17.067 5.666-89.993 32.887-127.454 96.922-13.602 23.262-21.862 57.071-30.566 92.842-8.141 33.348-18.193 74.82-29.935 86.869-2.662 2.304-15.838 5.239-32.273-1.281-13.5-5.341-36.864-20.395-41.865-61.373-11.059-90.3 27.563-176.265 27.938-177.135 4.028-8.755 3.26-18.654-1.86-26.743-5.171-8.055-14.029-12.698-23.62-12.698h-206.559c-7.594 0-27.733-13.261-27.733-28.86-0.051-37.615 43.298-320.853 55.057-347.563zM929.673 69.342h-134.741v435.507h134.741v-435.507z" />
<glyph unicode="&#xe65e;" glyph-name="right" d="M300.295 832.185l455.941-446.71-455.941-446.709-35.439 34.694 420.652 412.015-420.652 412.016z" />
<glyph unicode="&#xe73b;" glyph-name="weixin" d="M319.302 510.604c0-18.509 15.004-33.513 33.513-33.513s33.513 15.004 33.513 33.513v0c0 18.509-15.004 33.513-33.513 33.513s-33.513-15.004-33.513-33.513v0zM469.178 511.535c0-18.509 15.004-33.513 33.513-33.513s33.513 15.004 33.513 33.513v0c0 18.509-15.004 33.513-33.513 33.513s-33.513-15.004-33.513-33.513v0zM552.96 361.658c0-12.853 10.42-23.273 23.273-23.273s23.273 10.42 23.273 23.273v0c0 12.853-10.42 23.273-23.273 23.273s-23.273-10.42-23.273-23.273v0zM671.185 359.796c0-12.853 10.42-23.273 23.273-23.273s23.273 10.42 23.273 23.273v0c0 12.853-10.42 23.273-23.273 23.273s-23.273-10.42-23.273-23.273v0zM512 896c-282.996 0-512-229.004-512-512s229.004-512 512-512 512 229.004 512 512-229.004 512-512 512zM424.495 265.775c-26.996 0-48.407 5.585-75.404 11.171l-75.404-37.236 21.411 64.233c-53.993 37.236-85.644 85.644-85.644 145.222 0 102.4 96.815 182.458 215.040 182.458 105.193 0 198.284-64.233 216.902-150.807-6.516 0.931-13.964 0.931-20.48 0.931-102.4 0-182.458-76.335-182.458-170.356 0-15.825 2.793-30.72 6.516-44.684-7.447 0-13.964-0.931-20.48-0.931zM739.142 190.371l15.825-53.993-58.647 32.582c-21.411-5.585-42.822-11.171-64.233-11.171-102.4 0-182.458 69.818-182.458 155.462s80.058 155.462 182.458 155.462c96.815 0 182.458-69.818 182.458-155.462 0-47.476-31.651-90.298-75.404-122.88z" />
<glyph unicode="&#xe73c;" glyph-name="weibo" d="M448.698 413.789c-96.815-4.655-175.011-56.785-175.011-121.949s78.196-114.502 175.011-109.847 175.011 66.095 175.011 131.258c-0.931 64.233-79.127 105.193-175.011 100.538zM513.862 249.018c-29.789-39.098-88.436-57.716-145.222-26.065-26.996 14.895-26.065 43.753-26.065 43.753s-11.171 92.16 85.644 103.331c97.745 12.102 115.433-81.92 85.644-121.018zM448.698 311.389c-6.516-4.655-7.447-13.033-3.724-18.618 2.793-5.585 11.171-6.516 16.756-1.862s8.378 13.033 4.655 18.618c-2.793 5.585-10.24 6.516-17.687 1.862zM403.084 298.356c-18.618-1.862-30.72-17.687-30.72-33.513 0-14.895 14.895-26.065 32.582-24.204s32.582 15.825 32.582 31.651-13.964 27.927-34.444 26.065zM512 896c-282.996 0-512-229.004-512-512s229.004-512 512-512 512 229.004 512 512-229.004 512-512 512zM709.353 269.498c-40.029-85.644-171.287-127.535-268.102-120.087-92.16 7.447-211.316 38.167-223.418 151.738 0 0-6.516 51.2 42.822 117.295 0 0 70.749 99.607 152.669 128.465 82.851 27.927 92.16-19.549 92.16-48.407-4.655-24.204-12.102-38.167 18.618-28.858 0 0 80.989 38.167 114.502 4.655 26.996-26.996 4.655-65.164 4.655-65.164s-11.171-12.102 12.102-16.756c21.411-3.724 94.022-37.236 53.993-122.88zM629.295 505.949c-8.378 0-15.825 7.447-15.825 15.825 0 9.309 7.447 15.825 15.825 15.825 0 0 99.607 18.618 87.505-89.367v-1.862c-0.931-7.447-7.447-13.964-15.825-13.964-9.309 0-15.825 7.447-15.825 15.825 0 1.862 15.825 73.542-55.855 57.716zM797.789 402.618c-2.793-18.618-12.102-11.171-22.342-11.171-13.033 0-23.273 16.756-23.273 29.789 0 11.171 4.655 22.342 4.655 22.342 0.931 4.655 12.102 34.444-7.447 78.196-35.375 60.509-106.124 60.509-114.502 57.716-8.378-3.724-21.411-5.585-21.411-5.585-13.033 0-23.273 10.24-23.273 23.273 0 11.171 7.447 19.549 16.756 22.342 0 0 0-0.931 0.931-0.931s1.862-0.931 1.862-0.931c10.24 1.862 45.615 4.655 79.127-3.724 62.371-14.895 146.153-83.782 108.916-211.316z" />
<glyph unicode="&#xe73e;" glyph-name="QQ" d="M512 896c-282.996 0-512-229.004-512-512s229.004-512 512-512 512 229.004 512 512-229.004 512-512 512zM722.385 254.604c-7.447-9.309-26.996 1.862-41.891 32.582-3.724-13.964-13.033-36.305-34.444-64.233 35.375-8.378 44.684-42.822 33.513-61.44-8.378-13.033-26.996-24.204-59.578-24.204-58.647 0-83.782 15.825-95.884 26.996-1.862 2.793-5.585 3.724-10.24 3.724s-7.447-0.931-10.24-3.724c-11.171-11.171-37.236-26.996-95.884-26.996-32.582 0-52.131 11.171-59.578 24.204-12.102 18.618-1.862 53.062 33.513 61.44-20.48 27.927-29.789 50.269-34.444 64.233-13.964-30.72-34.444-42.822-41.891-32.582-5.585 8.378-8.378 26.065-7.447 38.167 3.724 46.545 34.444 85.644 53.062 106.124-2.793 5.585-8.378 40.029 14.895 63.302v1.862c0 92.16 65.164 158.255 148.015 158.255 81.92 0 148.015-66.095 148.015-158.255v-1.862c23.273-23.273 17.687-57.716 14.895-63.302 17.687-20.48 49.338-59.578 53.062-106.124 0.931-12.102-0.931-29.789-7.447-38.167z" />
<glyph unicode="&#xe8ff;" glyph-name="left" d="M723.705-64.185l-455.941 446.71 455.941 446.709 35.439-34.694-420.652-412.015 420.652-412.016z" />
<glyph unicode="&#xe900;" glyph-name="search" horiz-adv-x="1109" d="M406.277 83.454c-0.737-0.005-1.609-0.008-2.482-0.008-223.009 0-403.794 180.785-403.794 403.794 0 0.843 0.003 1.685 0.008 2.527l-0.001-0.13c-0.005 0.763-0.008 1.665-0.008 2.568 0 223.009 180.785 403.794 403.794 403.794 0.873 0 1.745-0.003 2.617-0.008l-0.134 0.001c0.738 0.005 1.61 0.008 2.482 0.008 223.009 0 403.794-180.785 403.794-403.794 0-0.873-0.003-1.745-0.008-2.616l0.001 0.134c0.005-0.737 0.008-1.609 0.008-2.482 0-223.009-180.785-403.794-403.794-403.794-0.843 0-1.685 0.003-2.527 0.008l0.13-0.001zM406.277 779.939c-0.816 0.008-1.78 0.013-2.745 0.013-158.727 0-287.4-128.673-287.4-287.4 0-0.995 0.005-1.988 0.015-2.98l-0.001 0.151c0-162.559 127.658-290.216 290.131-290.216 162.559 0 290.216 127.658 290.216 290.131 0 162.559-127.658 290.302-290.131 290.302zM951.553-110.763l-172.799 172.201c-10.63 10.124-17.241 24.386-17.241 40.192s6.611 30.067 17.219 40.17l0.023 0.021c23.040 23.040 57.6 23.040 80.639 0l172.799-172.287c10.63-10.124 17.241-24.386 17.241-40.192s-6.611-30.067-17.219-40.17l-0.023-0.021c-10.177-10.621-24.478-17.222-40.32-17.222s-30.142 6.601-40.301 17.203l-0.019 0.020z" />
<glyph unicode="&#xe901;" glyph-name="top" d="M884.526 732.677h-675.645c-30.515 0-55.25-24.934-55.25-55.685s24.735-55.685 55.25-55.685h675.645c30.515 0 55.255 24.929 55.255 55.685s-24.74 55.685-55.255 55.685zM568.253 559.13c-1.266 1.271-2.589 2.481-3.968 3.627l-0.093 0.075c-0.63 0.517-1.29 0.968-1.935 1.454-0.799 0.604-1.577 1.224-2.406 1.787-0.778 0.527-1.582 0.978-2.386 1.459-0.748 0.451-1.485 0.927-2.253 1.341-0.809 0.44-1.649 0.814-2.483 1.208-0.799 0.384-1.587 0.783-2.406 1.132-0.814 0.338-1.644 0.609-2.463 0.906-0.876 0.323-1.746 0.66-2.642 0.932-0.824 0.251-1.659 0.435-2.488 0.645-0.916 0.236-1.818 0.492-2.749 0.681-0.963 0.189-1.935 0.307-2.903 0.445-0.814 0.118-1.618 0.271-2.442 0.353-1.627 0.173-3.519 0.274-5.433 0.276h-0.020c-0.266 0-0.527-0.036-0.794-0.036-0.256 0.004-0.558 0.007-0.86 0.007-15.253 0-29.052-6.225-38.994-16.273l-0.005-0.005-279.414-281.61c-21.576-21.75-21.576-57.006 0-78.756 9.954-10.073 23.769-16.312 39.041-16.312 0.010 0 0.021 0 0.031 0h-0.002c0.012 0 0.027 0 0.041 0 15.267 0 29.077 6.239 39.019 16.307l0.006 0.006 186.67 188.145v-389.012c0-30.751 24.74-55.685 55.255-55.685s55.255 24.934 55.255 55.685v387.42l185.093-186.552c9.953-10.073 23.768-16.312 39.039-16.312 0.009 0 0.019 0 0.028 0h-0.001c0.012 0 0.027 0 0.041 0 15.267 0 29.077 6.239 39.019 16.307l0.006 0.006c21.576 21.75 21.576 57.006 0 78.756l-279.404 281.595z" />
<glyph unicode="&#xe902;" glyph-name="like" d="M512-32c-28.928 0-57.92 12.672-86.624 41.376l-319.104 322.624c-38.208 47.648-74.272 92.672-74.272 180 0 141.152 114.848 256 256 256 53.088 0 104-16.096 147.296-46.592 14.432-10.176 17.92-30.144 7.712-44.608-10.176-14.432-30.080-17.92-44.608-7.712-32.384 22.848-70.592 34.912-110.4 34.912-105.888 0-192-86.112-192-192 0-61.408 20.288-90.112 59.168-138.688l315.584-318.816c15.968-15.968 28.864-22.304 41.248-22.496 12.704-0.192 24.928 6.176 41.376 22.624l316.672 319.904c26.016 28.192 57.952 75.776 57.952 137.472 0 105.888-86.112 192-192 192-48.064 0-94.080-17.856-129.536-50.272l-134.080-134.112c-12.512-12.512-32.736-12.512-45.248 0s-12.512 32.736 0 45.248l135.104 135.136c48.32 44.192 109.664 68 173.76 68 141.152 0 256-114.848 256-256 0-82.368-41.152-144.288-75.68-181.696l-317.568-320.8c-28.8-28.832-57.792-41.504-86.752-41.504z" />
<glyph unicode="&#xe903;" glyph-name="like_fill" d="M736 768c-65.952 0-128.576-25.024-176.384-70.464-4.576-4.32-28.672-28.736-47.328-47.68l-47.328 47.104c-47.84 45.824-110.688 71.040-176.96 71.040-141.152 0-256-114.848-256-256 0-82.432 41.184-144.288 76.48-182.496l316.896-320.128c25.088-25.056 52.928-41.376 86.624-41.376s61.568 16.32 86.752 41.504l318.944 322.464c38.208 47.648 74.304 92.64 74.304 180.032 0 141.152-114.848 256-256 256z" />
<glyph unicode="&#xe904;" glyph-name="user" d="M501.222 892.995c142.884 0 258.719-113.92 258.719-254.479 0-140.534-115.835-254.495-258.719-254.495-142.889 0-258.719 113.961-258.719 254.495-0.020 140.559 115.835 254.479 258.714 254.479zM501.222 892.995c142.884 0 258.719-113.92 258.719-254.479 0-140.534-115.835-254.495-258.719-254.495-142.889 0-258.719 113.961-258.719 254.495-0.020 140.559 115.835 254.479 258.714 254.479zM404.193 299.172h215.629c184.576 0 334.193-147.169 334.193-328.719v-21.192c0-71.542-149.637-74.271-334.193-74.271h-215.629c-184.576 0-334.218 0.072-334.218 74.271v21.197c0 181.545 149.642 328.714 334.218 328.714z" />
<glyph unicode="&#xe905;" glyph-name="uniE905" horiz-adv-x="1025" d="M1019.106 512c-11.286 32.011-39.713 55.051-74.195 60.127l-243.222 35.64-105.628 216.018c-15.271 31.276-48.262 51.49-84.057 51.49-35.707 0-68.653-20.214-83.968-51.49l-105.672-216.041-243.2-35.684c-34.505-4.964-62.954-27.982-74.24-60.171-11.264-32.501-2.872-67.807 21.882-92.138l178.51-175.638-41.405-243.378c-5.81-33.926 9.282-68.72 38.555-88.688 28.628-19.255 67.006-21.37 97.837-5.164l211.745 112.395 211.88-112.417c13.712-7.235 29.094-11.064 44.521-11.064 19.010 0 37.42 5.61 53.337 16.317 29.14 19.879 44.21 54.65 38.4 88.576l-41.383 243.4 178.532 175.64c24.71 24.353 33.102 59.681 21.771 92.271zM966.059 451.473l-195.094-191.956 45.278-266.329c2.939-17.096-4.586-34.059-19.478-44.232-15.249-10.24-35.818-11.331-52.046-2.783l-232.715 123.504-232.537-123.437c-16.406-8.637-36.998-7.48-52.046 2.671-15.048 10.263-22.573 27.248-19.634 44.344l45.3 266.284-195.070 191.956c-12.377 12.154-16.607 29.718-11.064 45.724 5.766 16.384 20.525 28.182 38.623 30.787l266.485 39.112 115.978 237.122c7.88 16.117 25.154 26.535 43.987 26.535 18.9 0 36.174-10.396 44.054-26.513l115.957-237.122 266.418-39.023c18.076-2.671 32.902-14.514 38.645-30.81 5.565-16.094 1.336-33.635-11.041-45.834zM509.043 519.101c-45.59 0-82.32-13.913-109.123-41.316-44.744-45.746-43.787-112.195-43.72-115.022 0.267-12.11 10.173-21.726 22.239-21.726h0.423c12.265 0.222 22.016 10.373 21.838 22.639 0 0.512-0.401 51.066 31.254 83.189 18.098 18.387 44.054 27.692 77.067 27.692 12.288 0 22.26 9.973 22.26 22.261s-9.95 22.283-22.238 22.283z" />
<glyph unicode="&#xe906;" glyph-name="notdef" horiz-adv-x="374" d="M34 84v682h272v-682h-272zM68 118h204v614h-204v-614z" />
<glyph unicode="&#xe907;" glyph-name="home" horiz-adv-x="1286" d="M1102.115 310.996l-458.839 378.299-458.839-378.299c0-0.537-0.139-1.337-0.398-2.396-0.273-1.074-0.398-1.869-0.398-2.396v-383.085c0-13.843 5.050-25.813 15.161-35.913 10.1-10.115 22.070-15.166 35.908-15.166h306.423v306.472h204.285v-306.472h306.423c13.828 0 25.798 5.050 35.908 15.166 10.1 10.1 15.161 22.075 15.161 35.913v383.085c0 2.122-0.273 3.718-0.795 4.792zM1286.448 380.028c-0.537 7.183-3.465 12.894-8.778 17.159l-174.759 145.253v325.624c0 7.446-2.396 13.565-7.183 18.357-4.787 4.787-10.911 7.183-18.352 7.183h-153.211c-7.456 0-13.565-2.396-18.352-7.183s-7.183-10.911-7.183-18.357v-155.627l-194.712 162.81c-17.030 13.833-37.24 20.753-60.642 20.753-23.417 0-43.628-6.919-60.647-20.753l-573.751-478.060c-5.324-4.265-8.256-9.976-8.778-17.159-0.537-7.183 1.322-13.441 5.587-18.754l49.473-59.062c4.25-4.787 9.837-7.719 16.756-8.778 6.382-0.537 12.77 1.322 19.152 5.587l552.203 460.504 552.208-460.504c4.25-3.728 9.837-5.587 16.756-5.587h2.396c6.909 1.059 12.491 3.991 16.756 8.778l49.473 59.062c4.255 5.314 6.109 11.572 5.587 18.754z" />
<glyph unicode="&#xe908;" glyph-name="uniE908" horiz-adv-x="1038" d="M519.41 896c-279.887-3.762-505.331-231.532-505.331-511.957 0-282.77 229.23-512 512-512 282.755 0 511.976 229.206 512 511.955v0.002c-3.762 283.57-234.518 512-518.626 512-0.015 0-0.031 0-0.046 0h0.003zM519.41-42.79c-233.468 2.928-421.603 192.873-421.603 426.759 0 235.71 191.080 426.79 426.79 426.79 235.698 0 426.772-191.062 426.79-426.756v-0.002c-2.096-236.158-194.025-426.793-430.479-426.793-0.526 0-1.053 0.001-1.579 0.003h0.081zM562.385 392.151v244.515c-2.908 21.577-21.204 38.037-43.346 38.037s-40.438-16.46-43.321-37.812l-0.025-0.225v-266.003c-0.002-0.146-0.003-0.319-0.003-0.492 0-11.48 4.835-21.831 12.579-29.127l0.020-0.019 148.191-143.745c8.107-7.326 18.905-11.809 30.75-11.809s22.643 4.483 30.79 11.845l-0.040-0.036c7.598 7.854 12.28 18.57 12.28 30.379s-4.682 22.525-12.292 30.391l0.012-0.012z" />
<glyph unicode="&#xe909;" glyph-name="1" d="M161.451-36.181c-26.486 0.125-47.908 21.625-47.908 48.127 0 1.201 0.044 2.392 0.131 3.571l-0.009-0.158c0 14.677 3.413 31.744 6.144 49.835 3.911 20.815 6.148 44.762 6.148 69.231 0 0.621-0.001 1.242-0.004 1.862v-0.096c-75.456 64.372-123.65 158.774-125.945 264.483l-0.007 0.392c0 221.867 229.717 403.115 512 403.115s512-181.248 512-403.115-229.717-402.773-512-402.773c-0.79-0.004-1.725-0.006-2.661-0.006-77.976 0-152.619 14.272-221.458 40.347l4.3-1.429c-35.32-17.944-65.496-36.766-93.869-57.877l1.709 1.215-11.605-8.192c-7.529-5.286-16.869-8.47-26.95-8.533h-0.016zM512 753.664c-254.635 0-461.483-158.037-461.483-352.597 2.325-92.67 45.338-174.845 111.775-229.639l0.524-0.42c19.456-17.408 15.701-50.517 7.168-112.981-2.048-15.019-4.096-29.355-5.12-41.301l5.803 5.12c81.92 54.955 112.299 72.704 136.533 63.829 60.364-23.556 130.248-37.207 203.319-37.207 0.521 0 1.041 0.001 1.562 0.002h-0.081c254.635 0 461.483 158.037 461.483 352.597s-206.848 352.597-461.483 352.597zM256 384c0-23.187 18.797-41.984 41.984-41.984s41.984 18.797 41.984 41.984v0c0 23.187-18.797 41.984-41.984 41.984s-41.984-18.797-41.984-41.984v0zM470.016 384c0-23.187 18.797-41.984 41.984-41.984s41.984 18.797 41.984 41.984v0c0 23.187-18.797 41.984-41.984 41.984s-41.984-18.797-41.984-41.984v0zM684.032 384c0-23.187 18.797-41.984 41.984-41.984s41.984 18.797 41.984 41.984v0c0 23.187-18.797 41.984-41.984 41.984s-41.984-18.797-41.984-41.984v0z" />
<glyph unicode="&#xe90a;" glyph-name="uniE90A" d="M715.981-76.877h-563.988c-43.5 0-78.889 35.389-78.889 78.884v757.919c0 43.5 35.389 78.889 78.889 78.889h563.988c43.5 0 78.889-35.389 78.889-78.889v-757.914c0-43.5-35.389-78.889-78.889-78.889zM151.992 787.615c-15.268 0-27.689-12.421-27.689-27.689v-757.914c0-15.263 12.421-27.684 27.689-27.684h563.988c15.268 0 27.689 12.421 27.689 27.684v757.914c0 15.268-12.421 27.689-27.689 27.689h-563.988zM904.151-76.877h-285.117c-14.141 0-25.6 11.459-25.6 25.6s11.459 25.6 25.6 25.6h285.117c15.268 0 27.689 12.421 27.689 27.689v683.356c0 15.268-12.421 27.689-27.689 27.689h-37.161c-14.141 0-25.6 11.464-25.6 25.6s11.459 25.6 25.6 25.6h37.161c43.5 0 78.889-35.389 78.889-78.889v-683.356c0-43.5-35.389-78.889-78.889-78.889zM642.012 648.279h-416.051c-14.141 0-25.6 11.464-25.6 25.6s11.459 25.6 25.6 25.6h416.051c14.141 0 25.6-11.464 25.6-25.6s-11.464-25.6-25.6-25.6zM642.012 468.157h-416.051c-14.141 0-25.6 11.464-25.6 25.6s11.459 25.6 25.6 25.6h416.051c14.141 0 25.6-11.464 25.6-25.6s-11.464-25.6-25.6-25.6zM642.012 290.376h-416.051c-14.141 0-25.6 11.459-25.6 25.6s11.459 25.6 25.6 25.6h416.051c14.141 0 25.6-11.459 25.6-25.6s-11.464-25.6-25.6-25.6zM380.155 105.574h-153.272c-14.141 0-25.6 11.459-25.6 25.6s11.459 25.6 25.6 25.6h153.272c14.141 0 25.6-11.459 25.6-25.6s-11.459-25.6-25.6-25.6z" />
<glyph unicode="&#xe90b;" glyph-name="hover" horiz-adv-x="1025" d="M1019.116 512c-11.288 32.008-39.72 55.048-74.2 60.128l-243.216 35.64-105.632 216.016c-15.272 31.28-48.264 51.488-84.064 51.488-35.704 0-68.648-20.208-83.968-51.488l-105.672-216.040-243.2-35.68c-34.504-4.968-62.952-27.984-74.24-60.168-11.264-32.504-2.872-67.808 21.88-92.144l178.504-175.64-41.4-243.376c-5.816-33.92 9.28-68.72 38.552-88.688 28.632-19.248 67-21.376 97.832-5.168l211.744 112.4 211.872-112.424c12.903-6.942 28.23-11.033 44.511-11.064h0.009c19.008 0 37.424 5.608 53.336 16.312 29.144 19.88 44.208 54.656 38.408 88.576l-41.392 243.408 178.528 175.632c24.744 24.36 33.136 59.688 21.808 92.28zM509.020 474.56c-33.008 0-58.968-9.304-77.064-27.696-31.656-32.12-31.256-82.672-31.256-83.192 0.002-0.104 0.003-0.226 0.003-0.349 0-12.154-9.726-22.037-21.819-22.291h-0.448c-0.002 0-0.004 0-0.006 0-12.106 0-21.952 9.672-22.234 21.71v0.026c-0.064 2.832-1.024 69.272 43.72 115.016 26.8 27.4 63.528 41.32 109.12 41.32 12.297-0.005 22.264-9.974 22.264-22.272 0-12.3-9.972-22.272-22.272-22.272-0.003 0-0.006 0-0.008 0v0z" />
</font>
</defs>
</svg>
